# xmcd
#
# Track frame offsets:
#	150
#	24000
#	44177
#	72037
#	91592
#	110070
#	126957
#	145197
#	168442
#	191842
#	212915
#	228125
#	243935
#
# Disc length: 3806 seconds
#
# Revision: 1
# Processed by: cddbd v1.5.1PL0 Copyright (c) Steve Scherf et al.
# Submitted via: audiograbber 1.83.01
#
DISCID=b10edc0d
DTITLE=Mick Martin and the Blues Rockers - In One Ear
DYEAR=1900
DGENRE=Blues
TTITLE0=Way of the World
TTITLE1=In One Ear
TTITLE2=Healing Touch
TTITLE3=Magic
TTITLE4=Brand New Day
TTITLE5=It's Comin' Back
TTITLE6=Always Be There For You
TTITLE7=Scratch When I Itch
TTITLE8=Let's Get Nasty
TTITLE9=Get Through to You
TTITLE10=Can't Get Excited
TTITLE11=Alligator Women
TTITLE12=Cristo Redentor
EXTD=
EXTT0=
EXTT1=
EXTT2=
EXTT3=
EXTT4=
EXTT5=
EXTT6=
EXTT7=
EXTT8=
EXTT9=
EXTT10=
EXTT11=
EXTT12=
PLAYORDER=
